<svg height="280" viewBox="0 0 137.58337 74.083338" width="520" xmlns="http://www.w3.org/2000/svg"><path d="m-4.251234-3.49417h140.75833156v77.52291569h-140.75833156z" fill="#fff" opacity=".1" stroke-width=".26458333"/><g fill="#063443" fill-opacity=".1" stroke-width=".26458333"><path d="m128.040431 48.09957935h8.46666656v16.93333312h-8.46666656z"/><path d="m117.4570978 40.16207945h8.46666656v24.87083302h-8.46666656z"/><path d="m106.8737646 35.39957951h8.46666656v29.63333296h-8.46666656z"/><path d="m96.2904314 23.75791299h8.46666656v41.27499948h-8.46666656z"/><path d="m85.7070982 35.39957951h8.46666656v29.63333296h-8.46666656z"/><path d="m75.123765 37.25166282h8.46666656v27.78124965h-8.46666656z"/><path d="m64.5404318 40.16207945h8.46666656v24.87083302h-8.46666656z"/><path d="m53.9570986 48.09957935h8.46666656v16.93333312h-8.46666656z"/><path d="m43.3737654 50.74541265h8.46666656v14.28749982h-8.46666656z"/><path d="m32.7904322 53.39124595h8.46666656v11.64166652h-8.46666656z"/><path d="m22.207099 55.77249592h8.46666656v9.26041655h-8.46666656z"/><path d="m11.6237658 57.88916256h8.46666656v7.14374991h-8.46666656z"/></g><g opacity=".15" transform="matrix(.26458333 0 0 .26458333 11.6237658 6.956871535)"><path d="m0 218.5h472v1h-472z" fill="#063443"/><g stroke="#063443" stroke-dasharray="2 4"><path d="m0 146h472"/><path d="m0 73h472"/><path d="m0 .5h472"/></g></g><g fill="#063443" font-family="Inter-Regular, Inter" font-size="12"><g opacity=".4" transform="matrix(.26458333 0 0 .26458333 1.30501593 4.4433299)"><text><tspan x="0" y="12">600</tspan></text><text><tspan x="0" y="85">400</tspan></text><text><tspan x="0" y="158">200</tspan></text><text><tspan x="0" y="224">0</tspan></text></g><g opacity=".4" transform="matrix(.26458333 0 0 .26458333 12.15293246 69.00166242)"><text><tspan x="2.849432" y="12">Jan</tspan></text><text><tspan x="81.911934" y="12">Mar</tspan></text><text><tspan x="160.79971" y="12">May</tspan></text><text><tspan x="244.83522" y="12">Jul</tspan></text><text><tspan x="322.02274" y="12">Sep</tspan></text><text><tspan x="401.5625" y="12">Nov</tspan></text></g></g></svg>