<svg height="35" viewBox="0 0 32.014584 9.2604172" width="121" xmlns="http://www.w3.org/2000/svg"><g transform="matrix(1.0080596 0 0 .99084313 15.052854 -139.10773)"><path d="m-1.3662208 144.67801c-.0171-.19205-.156532-.30649-.410404-.30649-.252557 0-.378835.10655-.38015.25388-.0053.16047.149955.24203.394619.29464l.23151.0526c.53142196.11707.82212496.38015.82475596.81029-.0026.51169-.39988196.81554-1.07073496.81554-.677431 0-1.115458-.30122-1.123351-.9313h.623499c.01447.25913.203887.39331.491959.39331.261765 0 .415667-.11444.418297-.27887-.0026-.15127-.135486-.23151-.431451-.29991l-.281495-.0658c-.465651-.10655-.752408-.33674-.751093-.74583-.0039-.50117.439344-.83659 1.05495-.83659.62613 0 1.02732696.34068 1.03258796.84448zm1.45351896 1.88628v-2.69393h1.87838904v.52879h-1.22726704v.55246h1.13124204v.53011h-1.13124204v.55378h1.22726704v.52879zm2.74918604 0v-2.69393h1.878391v.52879h-1.227267v.55246h1.131242v.53011h-1.131242v.55378h1.227267v.52879zm3.744944 0h-.995759v-2.69393h.994442c.822126 0 1.331185.50511 1.331185 1.34565 0 .84185-.509059 1.34828-1.329868 1.34828zm-.344635-.5551h.319643c.45381 0 .702421-.21046.702421-.79318 0-.58009-.248611-.79056-.711631-.79056h-.310433zm2.972805.5551h-.699794l.908942-2.69393h.8668458l.908942 2.69393h-.699794l-.177578-.56562h-.9299858zm.332796-1.06021h.6195508l-.2999108-.95498h-.02103zm1.9809928-1.10493v-.52879h2.276954v.52879h-.816861v2.16514h-.641916v-2.16514zm3.305599 2.16514h-.699792l.908939-2.69393h.866849l.908942 2.69393h-.699794l-.177577-.56562h-.929987zm.332795-1.06021h.619554l-.299911-.95498h-.02103z" fill="#063443" stroke-width=".264583"/><g fill="none" stroke="#063443" stroke-width=".529167"><path d="m-10.434587 149.47471c2.3380053 0 4.2333332-1.89196 4.2333332-4.22582 0-1.11341-.3369532-2.52702-1.0108599-4.24085-1.3888077.38565-2.4629655 1.14191-3.2224733 2.2688-.772764-1.12689-1.788455-1.88305-3.04707-2.26848-.790842 1.55716-1.186264 2.97067-1.186264 4.24053 0 2.33386 1.895328 4.22582 4.233334 4.22582z"/><path d="m-10.434587 147.88721c1.4612531 0 2.6458332-1.16663 2.6458332-2.60575 0-1.33-.8819444-2.75447-2.6458332-4.27342-1.763889 1.51895-2.645834 2.94342-2.645834 4.27342 0 1.43912 1.184581 2.60575 2.645834 2.60575z"/><path d="m-10.434587 146.29971c.5845012 0 1.0583332-.46537 1.0583332-1.03943 0-.75229-.3527777-1.37595-1.0583332-1.87099-.705556.49504-1.058334 1.1187-1.058334 1.87099 0 .57406.473832 1.03943 1.058334 1.03943z"/></g></g></svg>